<svg width="29" height="54" viewBox="0 0 29 54" fill="none" xmlns="http://www.w3.org/2000/svg">
<path d="M25.6347 16.3855C25.0011 15.9757 24.3857 15.5111 23.8549 14.9781C23.7918 14.9121 23.7249 14.8472 23.6607 14.7774C22.9401 14.167 22.3163 13.4267 21.8378 12.4772C20.7125 10.2294 20.1756 7.96399 20.9094 5.50924C21.4081 3.83148 22.0989 2.25537 23.4791 1.08239C23.6024 0.974471 23.6752 0.61878 23.5948 0.503591C23.4874 0.350006 23.1816 0.208489 23.0068 0.247353C22.2739 0.415994 21.5467 0.620475 20.8417 0.877024C18.6109 1.69037 16.5793 2.90632 14.6518 4.26425C13.5169 5.06409 12.545 6.10203 11.5045 7.03818C11.259 7.25789 11.189 7.51739 11.2511 7.86985C11.4059 8.74906 11.6141 9.64291 11.5934 10.528C11.551 12.2942 11.4179 14.0601 11.2248 15.8172C11.122 16.7493 10.9457 17.7137 10.5877 18.5694C9.82261 20.3896 8.42033 21.6639 6.73503 22.6371C6.42505 22.8161 6.11299 22.9874 5.78767 23.1706C6.56152 25.0776 7.31489 26.8781 7.01888 28.9866C6.93285 29.5989 6.91858 29.9429 7.04501 30.1826C8.64429 30.585 10.219 31.2015 11.6501 32.0185C12.7698 32.6582 13.9092 33.5083 14.7348 34.5384C14.0501 34.3664 13.3675 34.1564 12.6915 33.9405C12.5021 33.8796 12.3166 33.8176 12.1272 33.7567C12.0704 33.7139 12.0174 33.6701 11.9567 33.6284C11.9902 33.6609 12.0208 33.6982 12.0505 33.7317C11.3822 33.5138 10.7129 33.2919 10.0373 33.0925C9.55869 32.9519 9.07384 32.8338 8.58724 32.7245C7.94163 32.5294 7.28308 32.3627 6.63746 32.1676C6.54329 32.1391 6.43268 32.1565 6.33463 32.1747C4.69041 32.4606 3.38551 33.3021 2.41334 34.6595C1.08066 36.5125 0.680708 38.5868 1.08305 40.8263C1.1025 40.9289 1.1418 41.0594 1.1895 41.1751C1.3912 41.129 1.59114 41.0917 1.79142 41.0708C2.03659 40.789 2.28769 40.5138 2.58202 40.2768C3.27715 39.7242 4.11123 39.4577 4.96513 39.2647C5.48732 38.9869 6.03145 38.7447 6.60729 38.5438C7.65358 38.1785 8.69037 37.9155 9.75519 37.8937C8.79385 38.4517 7.86176 39.0724 7.12979 39.8548C6.27594 40.7655 5.94595 41.8626 5.89222 43.0221C5.42441 44.1273 4.76726 45.126 3.92876 46.0325C3.5247 46.4734 3.12865 46.9287 2.76782 47.4077C2.68608 47.5169 2.62075 47.6258 2.56517 47.7403C2.83443 48.6011 3.10194 49.4707 3.48219 50.2849C3.81624 50.4852 4.16461 50.6775 4.53433 50.781C4.89534 50.8828 5.18337 51.0498 5.42041 51.2721C5.78346 51.4272 6.11572 51.6819 6.39637 51.9132C6.90675 52.3397 7.34345 52.8442 7.8755 53.2442C8.11746 53.4236 8.37165 53.5874 8.63039 53.7375C8.73821 53.725 8.85091 53.7153 8.96081 53.7106C9.05502 53.6934 9.14924 53.6763 9.24345 53.6592C9.43935 53.4695 9.64117 53.2864 9.85485 53.1168C9.85868 53.1157 9.85764 53.1119 9.86148 53.1108C10.0504 52.9105 10.253 52.7148 10.4663 52.5287C10.5576 52.2717 10.6597 52.0243 10.7695 51.7748C10.6917 51.3644 10.5127 50.9605 10.4102 50.565C10.108 49.4144 9.98835 48.2229 10.2392 47.0766C10.1422 46.7169 10.0975 46.3681 10.1801 46.0637C10.6649 44.3191 11.3349 42.62 11.9973 40.8317C12.9414 39.7059 14.0963 38.797 15.4626 38.3205C16.0478 38.2456 16.6284 38.1388 17.2056 38.0038C17.3364 38.0764 17.4913 38.101 17.6577 38.0769C20.5789 37.6705 23.446 36.9718 26.2234 35.9861C26.5283 35.9412 26.826 35.8692 27.1045 35.7567C27.3613 35.7621 27.6222 35.783 27.8703 35.741C28.0916 35.7062 28.4046 35.5844 28.4717 35.4211C28.5295 35.2686 28.3598 34.9451 28.1998 34.8099C28.0722 34.7033 27.9324 34.6124 27.7859 34.5275C27.6814 34.4146 27.536 34.3335 27.3853 34.3244C27.3472 34.3056 27.3103 34.2907 27.2723 34.2719C25.6569 33.5502 24.1609 32.676 23.0643 31.2212C22.3921 30.3322 21.7345 29.4517 21.7108 28.2799C21.7045 27.9664 21.6905 27.6549 21.6803 27.3423C21.8252 26.3988 22.071 25.478 22.4158 24.5884C22.6086 24.2958 22.8123 24.0127 23.0424 23.7515C24.6738 21.876 27.3381 20.8835 28.3645 18.5365C28.5855 18.3483 28.7047 18.1336 28.6649 17.7876C28.6483 17.6344 28.5967 17.5197 28.533 17.4208C27.5 17.3468 26.4851 16.9278 25.6347 16.3855Z" fill="#F1F1F1"/>
</svg>
