<svg width="40" height="51" viewBox="0 0 40 51" fill="none" xmlns="http://www.w3.org/2000/svg">
<path d="M13.3601 17.35C13.4701 17.05 13.4401 16.73 13.2701 16.45L6.96008 5.98L3.86008 0L2.76008 5.73H2.77008L0.0200793 19.1C-0.0499207 19.46 0.0700793 19.82 0.360079 20.1L6.42008 25.87L11.1901 48.57C11.3801 49.57 12.5101 50.25 13.7001 50.09C13.7001 50.09 15.6901 48.98 15.5001 47.98L10.6001 24.66L13.3601 17.35Z" fill="#F1F1F1"/>
<path d="M9.20007 24.33C9.20007 24.33 21.8301 25.28 22.1601 22.31C22.3301 20.62 18.0701 21.24 18.1601 19.13C18.2001 18.06 26.1301 15.91 37.3601 15.62C35.6601 18.76 31.2101 22.7 31.2101 22.7C31.2101 22.7 36.3701 25.58 39.3201 29.35C35.7301 30.22 26.1501 28.48 25.3201 30.05C25.7401 31.95 26.7701 35.87 26.7701 35.87C26.7701 35.87 19.9201 39.46 11.6601 37.52C10.7501 33.06 11.1801 27.82 11.1801 27.82L9.20007 24.33Z" fill="#F1F1F1"/>
</svg>
