<svg width="45" height="51" viewBox="0 0 45 51" fill="none" xmlns="http://www.w3.org/2000/svg">
<g clip-path="url(#clip0)">
<path d="M0.0567712 26.4545C0.170427 27.3945 0.340909 28.3205 0.426149 29.2605C0.447457 29.5271 0.497182 29.7867 0.55401 30.0462C1.35669 31.2107 2.43641 32.1718 3.65819 32.9084C4.89418 33.659 6.59189 33.8975 7.60057 34.9638C8.16174 35.5601 8.46008 36.2827 8.69449 37.0333C9.08518 37.5664 9.35511 38.1697 9.66056 38.7801C10.4206 40.3023 11.7276 41.509 12.5871 42.9891C13.4111 44.4132 14.1001 45.9074 14.9952 47.2894C15.9399 48.7556 17.1972 50.0323 18.8878 50.6216C20.6424 51.2389 22.5035 51.0004 24.258 50.5023C25.6716 50.0955 27.831 49.9762 28.8113 48.7696C29.7631 47.5981 30.1325 46.0197 30.9068 44.7359C32.5263 42.0491 33.9896 39.0186 36.6463 37.1876C39.0757 34.5008 42.0733 32.249 43.7355 28.8887C44.5737 27.1841 44.9999 25.3742 44.9999 23.5923C44.9147 23.3468 44.8223 23.1083 44.7371 22.8627C44.5311 22.2735 44.4245 21.7473 44.1404 21.2633C43.977 20.9897 43.771 20.7372 43.6005 20.4706C43.3022 20.19 42.9896 19.9234 42.6913 19.6428C42.0023 18.9764 41.2422 18.3731 40.7876 17.5172C40.4466 16.8718 40.2193 16.1773 39.8357 15.56C39.7931 15.4898 39.7505 15.4197 39.7008 15.3566C39.2817 15.4057 38.8768 15.553 38.5074 15.7704C38.3866 15.9669 38.273 16.1703 38.1877 16.3808C38.0599 16.6824 37.9675 16.9981 37.8894 17.3138C37.8468 17.5032 37.8184 17.8048 37.8255 17.882C37.8752 18.5274 38.4008 19.3131 38.7205 19.9865C39.1467 20.8775 39.3243 21.7754 39.1254 22.7505C39.0331 23.2135 38.8697 23.6414 38.6637 24.0483C38.4008 25.9564 36.9589 27.8786 35.6092 29.3096C35.5382 29.1623 35.4743 29.022 35.3961 28.8817C34.7355 27.6611 33.8902 26.6649 32.9312 25.8652C32.6968 25.2479 32.5832 24.5814 32.5619 23.8869C32.5121 21.9929 32.8815 20.0216 33.1941 18.1696C33.5066 16.3246 34.011 14.62 34.6361 12.8942C34.8065 12.4242 34.9557 11.9472 35.0836 11.4632C35.0694 11.3088 35.048 11.1545 35.0338 10.9931C34.9486 10.2285 34.9699 9.44985 34.8207 8.69923C34.6574 7.85742 34.2312 7.2471 33.6132 6.65783C32.5974 5.69676 31.3188 5.09345 30.1325 4.3709C28.9107 3.62729 28.0015 2.71532 27.007 1.71216C26.5027 1.20707 25.9699 0.737067 25.3235 0.421385C25.1459 0.337202 24.5776 0.1057 24.2083 0.028532C23.9668 0.568697 23.8531 1.21409 23.8034 1.79634C23.8318 2.29442 23.8673 2.79951 23.9597 3.29057C24.1159 4.12537 24.3503 5.07241 24.7268 5.92124C24.7339 5.93527 24.741 5.94229 24.7481 5.95632C24.8263 6.13169 24.9186 6.30708 25.0039 6.48245C25.1814 6.80515 25.3874 7.09978 25.6289 7.36636C26.46 8.28534 27.7955 8.95879 28.1293 10.2285C28.1364 10.2636 28.1364 10.2916 28.1435 10.3267C28.1507 10.3337 28.1578 10.3407 28.1649 10.3477C28.1578 10.3618 28.1578 10.3758 28.1507 10.3828C28.3922 11.6736 27.4261 12.761 26.9928 13.9044C26.7158 14.627 26.4316 15.3425 26.1404 16.051C25.9415 17.0191 25.8065 17.9942 25.7355 18.9834C25.1104 20.3583 24.599 21.7754 24.5208 23.2416C23.9952 23.2486 23.4695 23.2766 22.9439 23.3257C22.7237 23.1574 22.5035 22.996 22.2904 22.8136C22.1767 22.7154 22.063 22.6172 21.9494 22.519C21.5871 22.035 21.2675 21.5369 20.962 21.0318C20.8626 18.9834 21.5445 16.942 22.3543 15.0549C22.5035 14.5709 22.5887 14.1149 22.6313 13.6028C22.7024 12.6627 23.022 11.842 22.7592 10.93C22.745 10.916 22.7379 10.9019 22.7237 10.8949C22.2832 10.481 21.7221 10.0601 21.097 10.0882C20.8484 10.0952 20.6495 10.1864 20.4222 10.3407C20.2517 10.46 20.0315 10.6915 19.861 10.8809C19.6976 11.0633 19.5413 11.2387 19.3851 11.4211C19.2288 12.0875 18.9162 12.7399 18.6179 13.3362C18.6108 13.3432 18.6037 13.3502 18.6037 13.3572C18.554 13.5326 18.5113 13.708 18.4616 13.8764C18.3551 14.2411 18.2343 14.6059 18.1207 14.9707C18.0496 14.8094 17.9715 14.641 17.8934 14.4867C17.5737 13.8553 17.2825 13.1959 17.0907 12.5154C17.0338 12.4453 16.9912 12.3611 16.9557 12.2769C16.9344 12.2418 16.9131 12.2138 16.8918 12.1717C16.3874 11.1685 16.8776 10.4109 17.0623 9.42179C17.2398 8.46072 17.0267 7.4786 17.3251 6.53156C17.5737 5.74586 18.0567 5.08644 18.7102 4.58135C18.8026 4.5112 18.8949 4.45508 18.9944 4.39194C19.2856 3.78162 19.6408 3.19236 19.9107 2.60309C20.0954 2.20322 20.2801 1.76828 20.3582 1.29126C20.3511 1.29827 20.3724 1.05976 20.3724 1.02468C20.3724 0.98961 20.3582 0.877367 20.3582 0.863336C20.344 0.800199 20.3156 0.716017 20.3085 0.68094C20.2943 0.66691 20.2233 0.547655 20.2233 0.54064C19.6053 -0.216994 18.6605 -0.0766931 17.8578 0.29511C17.7371 0.505563 17.6305 0.723035 17.524 0.947519C17.4245 1.16499 17.3322 1.38947 17.2185 1.59992C17.1546 1.71918 17.0765 1.83142 17.0125 1.95068C17.0054 1.95769 17.0054 1.96471 17.0054 1.97172C16.9912 1.98576 16.977 1.99979 16.9486 2.02785C16.906 2.06994 16.8563 2.11904 16.8065 2.16815C16.7923 2.17516 16.7781 2.18919 16.7355 2.21725C16.6929 2.24531 16.6503 2.27337 16.6076 2.29442C16.4087 2.41368 16.1956 2.5189 15.9825 2.61711C15.5634 2.81354 15.123 2.98191 14.7252 3.23445C13.9652 3.71849 13.2619 4.44807 12.9991 5.31093C12.992 5.31794 12.9849 5.32495 12.9778 5.33197C12.921 5.68974 12.7576 6.03348 12.5942 6.36319C12.5729 6.40528 12.5161 6.52454 12.4877 6.58066C12.4735 6.62276 12.4593 6.66484 12.445 6.70693C12.4237 6.77007 12.4095 6.83321 12.3882 6.89635C12.303 7.21904 12.2533 7.55577 12.2177 7.88548C12.1254 8.69923 12.0899 9.50597 12.2319 10.3197C12.3385 10.951 12.4593 11.5894 12.509 12.2278C12.921 13.722 13.063 15.2934 13.2832 16.8438C13.5248 18.5414 13.8657 20.218 14.0788 21.9087C14.1072 21.9999 14.1286 22.0841 14.157 22.1753C14.4056 22.8627 14.7039 23.5432 14.9099 24.2447C14.9312 24.3149 14.9525 24.392 14.9739 24.4622C14.9881 24.4832 14.9952 24.5043 15.0094 24.5253C15.5705 25.4653 16.1601 26.3072 16.6005 27.3173C17.4743 29.3377 18.1349 31.7088 18.0425 33.9186C18.0283 34.1852 17.8578 34.4447 17.5808 34.5149C14.8034 35.2023 13.4395 30.7828 12.4877 29.015C11.4932 27.156 10.037 25.5145 9.76001 23.3538C9.68187 22.7224 9.66766 22.0841 9.5398 21.4597C9.42615 20.8915 9.26987 20.3373 9.20594 19.762C9.06388 18.4853 9.24146 17.2226 9.54691 15.9879C9.56111 15.9458 9.58242 15.9107 9.59663 15.8757C9.66056 15.4407 9.7529 15.0058 9.88787 14.5568C10.0512 14.0237 9.96601 13.5747 9.7387 13.2169C9.58242 13.1468 9.42615 13.0836 9.24146 13.0345C9.14201 13.0065 9.03546 12.9854 8.92891 12.9574C8.88629 12.9504 8.86498 12.9433 8.85077 12.9363C8.83657 12.9363 8.81526 12.9363 8.77264 12.9363C8.6945 12.9363 8.60926 12.9363 8.53112 12.9363C8.50981 12.9433 8.39615 12.9644 8.36774 12.9714C7.66451 13.1889 6.93996 13.722 6.41431 14.3183C6.19411 14.5638 5.95259 14.9356 5.78211 15.3074C5.64714 15.6021 5.49086 16.1703 5.39852 16.5982C5.28487 17.1524 5.18542 17.6926 5.05046 18.2328C4.85156 19.9164 4.78763 21.6211 5.11439 23.2486C5.51928 25.2409 6.35748 27.1139 7.2312 28.9729C6.45693 28.552 5.68265 28.1381 4.90128 27.7172C4.76632 27.6471 4.62425 27.5699 4.48929 27.4927C4.25487 27.4787 4.01336 27.3805 3.82867 27.2261C3.75764 27.163 3.69371 27.0929 3.62978 27.0297C3.61557 27.0227 3.60847 27.0157 3.59426 27.0087C3.59426 27.0087 3.52323 26.9666 3.4664 26.9315C3.4664 26.9105 3.4593 26.8824 3.4593 26.8614C3.28171 26.6719 3.11123 26.4685 2.96206 26.251C2.85551 26.1037 2.76316 25.9494 2.68503 25.788C2.64241 25.7109 2.60689 25.6267 2.57137 25.5495C2.46482 25.297 2.44351 25.2479 2.50744 25.3952C2.47192 25.304 2.42931 25.2198 2.39379 25.1286C2.23751 24.7288 2.19489 24.3008 2.15227 23.8799C2.14517 23.8238 2.14517 23.5502 2.14517 23.7817C2.14517 23.6975 2.10965 23.5993 2.08834 23.5081C2.0031 23.445 1.91786 23.3889 1.83262 23.3257C1.56269 23.2556 1.27145 23.2416 0.987318 23.2836C0.703184 23.5853 0.46877 23.929 0.284081 24.3289C-0.0639829 25.0444 -0.0355711 25.7109 0.0567712 26.4545Z" fill="#F1F1F1"/>
</g>
<defs>
<clipPath id="clip0">
<rect width="45" height="51" fill="white"/>
</clipPath>
</defs>
</svg>
