<svg width="51" height="47" viewBox="0 0 51 47" fill="none" xmlns="http://www.w3.org/2000/svg">
<path d="M24.02 33.47C24.41 33.74 24.78 33.86 25.16 33.86C25.54 33.86 25.91 33.74 26.3 33.47C26.68 33.2 27.07 32.78 27.41 32.22C28.09 31.1 28.55 29.45 28.55 27.62C28.55 26.24 28.29 24.97 27.87 23.95C27.45 22.93 26.87 22.17 26.29 21.77C25.9 21.5 25.53 21.38 25.15 21.38C24.77 21.38 24.4 21.5 24.01 21.77C23.63 22.04 23.24 22.46 22.9 23.02C22.22 24.14 21.76 25.79 21.76 27.62C21.76 29 22.02 30.27 22.44 31.29C22.85 32.31 23.44 33.07 24.02 33.47Z" fill="#F1F1F1"/>
<path d="M50.0601 20.86C49.3801 17.06 47.0001 14.01 45.7901 10.09C45.3901 10.69 45.0301 11.03 44.9201 11.44C44.6401 12.5 44.3901 13.59 44.2701 14.68C44.1201 16.16 43.3301 16.95 41.8401 16.91C40.3401 16.87 39.0801 15.82 38.5301 14.06C37.3601 10.28 36.6701 6.42 36.6801 2.44C36.6801 1.67 36.3501 0.9 36.1801 0.13C36.0501 0.09 35.9101 0.05 35.7701 0C34.8901 0.75 33.9001 1.39 33.1501 2.25C30.5301 5.27 29.1501 8.89 28.5501 12.79C28.1001 15.75 28.5501 18.6 30.2301 21.16C30.3501 21.34 30.5601 21.47 30.7401 21.63C32.0101 19.44 33.4601 19.02 35.5001 20.13C37.5101 21.23 38.0201 23 37.6601 25.16C37.4501 26.43 36.7601 27.26 35.3301 27.58C33.2801 28.04 31.9201 26.98 30.4401 25.91C30.4301 25.9 30.4201 25.89 30.4101 25.89C30.4901 26.45 30.5301 27.02 30.5301 27.62C30.5301 29.24 30.2301 30.76 29.7101 32.05C29.1801 33.34 28.4201 34.41 27.4301 35.11C26.7701 35.57 25.9801 35.86 25.1501 35.86C24.3201 35.86 23.5301 35.58 22.8701 35.11C22.2001 34.64 21.6501 34.01 21.1901 33.26C20.2801 31.76 19.7601 29.78 19.7601 27.62C19.7601 27.02 19.8101 26.45 19.8901 25.89C18.9501 26.48 18.0501 27.18 17.0301 27.57C15.3701 28.21 13.3401 27.22 12.8201 25.63C12.2301 23.84 12.6001 21.22 14.9901 20.07C17.0101 19.1 18.2301 19.46 19.7801 21.82C19.9201 21.56 20.0301 21.34 20.1601 21.14C21.4401 19.15 22.0401 16.97 21.9401 14.62C21.8601 12.77 21.4301 11 20.9101 9.19C20.3901 7.42 19.5901 5.86 18.7201 4.31C17.7201 2.53 16.4701 0.92 14.2901 0.1C14.0701 0.72 13.7501 1.28 13.6901 1.86C13.6601 2.12 13.6501 2.38 13.6401 2.64C15.4401 7.63 13.4101 12.3 11.2801 15.17C11.2701 15.19 11.2501 15.21 11.2401 15.23C11.2201 15.26 11.2001 15.29 11.1701 15.32C10.7601 15.86 10.1501 16.35 9.58009 16.65C7.82009 17.58 6.26009 16.49 6.10009 14.54C6.00009 13.45 5.70009 12.37 5.41009 11.31C5.31009 10.95 4.94009 10.66 4.68009 10.32C3.77009 12.24 2.86009 13.95 2.13009 15.73C1.43009 17.45 0.730087 19.21 0.360087 21.02C-0.239913 23.88 -0.229913 26.79 1.55009 29.31C3.11009 31.53 4.84009 33.64 6.52009 35.78C7.12009 36.54 7.76009 37.27 8.40009 38C8.77009 38.42 9.18009 38.81 9.58009 39.21C9.66009 39.16 9.74009 39.12 9.82009 39.07C9.80008 38.78 9.73009 38.49 9.76009 38.21C9.85009 37.36 9.83009 36.46 10.1301 35.68C10.8201 33.87 13.2201 33.03 14.5801 34.23C15.5801 35.11 16.4901 36.29 16.9801 37.52C17.7601 39.49 18.8601 41.19 20.4901 42.42C21.9901 43.55 23.4301 44.68 24.4301 46.29C24.9201 47.07 25.2801 46.9 25.8301 46.28C26.9101 45.08 27.9601 43.78 29.2601 42.87C31.0501 41.63 32.2101 40 33.1701 38.15C33.6101 37.3 33.9201 36.37 34.4301 35.58C35.9301 33.26 38.4801 33 39.8701 35.12C40.4101 35.94 40.4101 37.13 40.6101 38.16C40.6701 38.46 40.5801 38.79 40.5501 39.1C40.6401 39.14 40.7301 39.18 40.8201 39.22C41.2301 38.78 41.6701 38.35 42.0501 37.89C43.4101 36.27 44.6301 34.54 46.1101 33.04C49.5201 29.61 50.9201 25.67 50.0601 20.86Z" fill="#F1F1F1"/>
</svg>
