<svg width="54" height="54" viewBox="0 0 54 54" fill="none" xmlns="http://www.w3.org/2000/svg">
<g clip-path="url(#clip0)">
<path d="M31.1601 16.1401C31.2601 17.5301 31.3801 21.0701 31.4701 22.4401C31.7701 27.0901 32.0501 31.7401 32.3501 36.3901C32.5401 39.2701 32.7301 42.1501 32.9501 45.0301C33.0101 45.7501 32.8001 46.3401 32.2701 46.9501C30.4801 49.0201 28.7501 51.1301 26.9301 53.3101C26.5001 52.8001 26.0801 52.3201 25.6801 51.8401L25.5701 51.9001C25.5701 51.9001 23.7601 49.7401 22.8701 48.5001C21.8901 47.4901 20.7901 46.5401 20.6801 45.2001C20.5501 43.4901 20.6601 41.7601 20.7601 40.0401C20.9501 36.6001 21.2001 33.1701 21.4301 29.7301C21.6601 26.2401 21.8801 22.7501 22.1101 19.2701C22.1301 18.9601 22.1901 16.4801 22.2401 16.1301C20.6201 16.1301 19.0001 16.1301 17.3701 16.1301C17.3701 14.9901 17.3701 12.3701 17.3701 11.2201C23.6101 12.4901 29.8201 12.6601 36.0501 11.1801C36.0501 12.3501 36.0501 14.9801 36.0501 16.1301L31.1601 16.1401Z" fill="#F1F1F1"/>
<path d="M28.92 0C27.39 0 25.94 0 24.42 0C24.42 3.74 24.42 7.43 24.42 11.19C25.99 11.19 27.42 11.19 28.92 11.19C28.92 7.44 28.92 3.73 28.92 0Z" fill="#F1F1F1"/>
<path d="M41.1801 24.05C43.8301 23.79 47.0001 23.28 48.9101 22.21C52.6701 20.12 53.9501 16.92 53.2901 11.59C46.6601 18.23 40.5701 18.74 34.3301 19.64C34.5701 25.55 34.8101 31.41 35.0501 37.26C35.9401 36.45 36.4101 35.7 36.6801 34.72C36.7901 34.33 36.8901 33.93 37.0001 33.53C41.0601 34.52 42.6101 33.08 44.9601 30.44C42.5301 31.22 39.6001 29.95 38.0801 29.13C45.3501 31.02 49.7801 28.17 51.6501 23.46C49.0801 24.91 44.4601 24.56 41.1801 24.05Z" fill="#F1F1F1"/>
<path d="M4.55006 22.21C6.46006 23.27 9.62006 23.79 12.2801 24.05C9.00006 24.56 4.38006 24.91 1.80006 23.46C3.67006 28.17 8.10006 31.02 15.3701 29.13C13.8401 29.96 10.9201 31.22 8.49006 30.44C10.8401 33.08 12.3901 34.52 16.4501 33.53C16.5501 33.93 16.6601 34.33 16.7701 34.72C17.0401 35.7 17.5101 36.45 18.4001 37.26C18.6401 31.41 18.8801 25.55 19.1201 19.64C12.8901 18.74 6.79006 18.23 0.160061 11.59C-0.489939 16.92 0.790061 20.12 4.55006 22.21Z" fill="#F1F1F1"/>
</g>
<defs>
<clipPath id="clip0">
<rect width="54" height="54" fill="white"/>
</clipPath>
</defs>
</svg>
